PathFileType	4	(X/Y/Z)	 Patient4_AnkleIso.trc
DataRate	CameraRate	NumFrames	NumMarkers	Units	OrigDataRate	OrigDataStartFrame	OrigNumFrames
100	100	8	33	mm	100	392	1567
Frame#	Time	Sacral			L.Shoulder			Chest			R.Shoulder			Neck			R.ASIS			L.ASIS			R.Thigh.Superior			R.Thigh.Lateral			R.Thigh.Inferior			R.Patella			L.Thigh.Superior			L.Thigh.Lateral			L.Thigh.Inferior			L.Patella			L.Shank.Superior			L.Shank.Lateral			L.Shank.Inferior			R.Shank.Superior			R.Shank.Lateral			R.Shank.Inferior			R.Heel			R.Midfoot.Superior			R.Midfoot.Lateral			R.Toe			L.Heel			L.Midfoot.Lateral			L.Midfoot.Superior			L.Toe			L.Elbow			L.Wrist			R.Elbow			R.Wrist			
		X1	Y1	Z1	X2	Y2	Z2	X3	Y3	Z3	X4	Y4	Z4	X5	Y5	Z5	X6	Y6	Z6	X7	Y7	Z7	X8	Y8	Z8	X9	Y9	Z9	X10	Y10	Z10	X11	Y11	Z11	X12	Y12	Z12	X13	Y13	Z13	X14	Y14	Z14	X15	Y15	Z15	X16	Y16	Z16	X17	Y17	Z17	X18	Y18	Z18	X19	Y19	Z19	X20	Y20	Z20	X21	Y21	Z21	X22	Y22	Z22	X23	Y23	Z23	X24	Y24	Z24	X25	Y25	Z25	X26	Y26	Z26	X27	Y27	Z27	X28	Y28	Z28	X29	Y29	Z29	X30	Y30	Z30	X31	Y31	Z31	X32	Y32	Z32	X33	Y33	Z33	

392	3.9100	680.634520	983.197200	658.947200	536.894470	1447.701200	841.015930	444.939180	1368.822000	685.854610	536.758910	1457.268900	523.767760	544.445070	1489.118200	708.900760	444.800260	954.475710	540.267210	466.204680	958.614870	812.388120	335.953090	817.493410	567.677800	346.558900	693.248050	485.713010	255.821950	680.012510	568.575260	202.737920	608.772160	546.892030	424.913330	739.739500	772.304990	522.690550	629.855900	817.827760	448.498080	543.989200	752.746150	452.224490	478.903500	736.053160	477.368130	406.575440	735.423400	569.875550	288.176730	765.703370	511.840940	184.521160	690.334840	190.985980	517.725280	532.180240	215.363750	396.057920	463.176180	128.177050	332.862920	512.432190	201.742540	168.664310	509.982760	21.669260	191.210850	532.423710	101.655370	129.371400	481.354860	-84.162880	117.605220	573.561770	628.378540	31.907190	617.069150	569.083440	29.069500	710.075560	482.824520	88.830720	699.503970	359.869810	36.542700	746.049190	545.607600	1159.424900	1039.118700	308.148590	1223.549800	1135.119800	662.525700	1264.935800	279.358370	630.911620	1173.942100	39.817380	
393	3.9200	681.068970	983.214110	659.230040	536.749760	1447.659800	840.802000	445.270870	1369.031300	684.787110	537.509830	1457.289300	523.474490	544.510130	1489.072800	708.702450	446.086210	953.960820	539.457580	465.767330	958.687990	811.690550	336.782230	817.411620	566.668270	347.771330	692.768490	485.651030	256.226870	680.406490	567.781920	203.808980	608.713260	546.214420	424.623720	739.790470	771.404420	522.250730	629.892090	817.488340	448.211730	544.010010	751.959410	452.702700	478.780610	735.702150	477.220180	406.535000	734.984800	569.595580	288.230830	765.588870	511.756260	184.529820	690.230770	191.838650	517.612180	532.270320	216.281370	395.468260	464.047790	128.990840	332.474370	513.846560	202.203430	167.530140	512.489140	22.166780	191.833850	534.244750	101.876240	128.347260	484.456790	-84.298840	119.655690	576.474550	628.387820	31.880380	617.098750	569.117680	29.054780	710.152160	482.815030	88.843180	699.453000	359.884090	36.602960	746.060360	545.539430	1159.266600	1038.736300	308.050540	1223.500200	1134.587000	663.199160	1264.796500	279.209780	631.587160	1173.553000	39.767030	
394	3.9300	681.475100	983.181400	659.557250	536.299560	1447.632200	840.578740	445.594450	1369.086100	684.075260	538.250790	1457.350200	523.264280	544.655580	1489.035400	708.383970	446.554750	954.117130	538.109130	464.859010	958.881770	811.104130	337.672550	817.423520	565.686100	348.991610	692.270080	485.409970	256.835780	680.609990	566.806210	205.097030	608.535160	545.549260	424.306060	739.752990	770.723450	521.754030	629.933900	817.193420	447.980900	544.015930	751.269590	452.636570	478.915530	735.344850	477.100620	406.462800	734.588260	569.343750	288.284030	765.463010	511.692050	184.587910	689.957090	192.917220	517.323970	532.475950	217.198200	394.703220	465.160890	129.847730	332.104130	515.209720	202.427870	166.425400	515.042480	22.591830	192.440370	536.149840	101.950690	127.458180	487.501160	-84.384190	121.842320	579.217290	628.415530	31.874390	617.111880	569.124760	29.057690	710.118960	482.812560	88.860670	699.438230	359.859530	36.620580	746.021240	545.463680	1159.173200	1038.392700	307.820370	1223.292700	1133.884900	663.753480	1264.655600	279.073390	632.342770	1173.203000	39.691140	
395	3.9400	681.857420	983.195310	659.895810	536.044740	1447.614900	840.401860	445.914920	1369.113500	683.266540	539.001950	1457.408100	523.049130	544.772890	1489.060300	708.231630	448.149960	953.843930	537.628110	464.786380	958.718990	810.004880	338.399440	817.476440	564.607540	350.373690	691.711910	485.083650	257.758030	680.622380	565.911500	206.580340	608.209050	544.927610	424.046940	739.913570	769.700440	521.177430	630.040100	816.849120	447.613490	544.130740	750.724180	453.374110	478.326260	734.610230	476.881960	406.404750	734.110780	569.121030	288.387570	765.331850	511.635010	184.595610	689.858890	194.150670	516.980350	532.673950	218.141750	393.957580	466.157200	130.589340	331.720760	516.668150	202.571590	165.226040	517.747380	22.974270	193.119830	537.922910	101.682200	126.555600	490.808200	-84.847890	124.054570	582.015990	628.414310	31.873610	617.114930	569.114070	29.023870	710.127010	482.831150	88.867520	699.344850	359.865810	36.671890	745.981020	545.383420	1159.096400	1038.033300	307.649690	1223.112500	1133.217900	664.378540	1264.626800	278.815160	633.085450	1172.927900	39.588580	
396	3.9500	682.222780	983.214050	660.187190	535.790770	1447.591300	840.243530	446.187990	1369.147900	682.693910	539.702450	1457.491100	522.879390	544.882200	1489.074000	708.103150	449.023070	953.577510	536.735110	464.590850	958.647030	809.060730	339.359830	817.459470	563.321470	352.011960	691.021550	484.785340	258.769290	680.486570	565.107600	208.396270	607.744510	544.328130	423.746370	739.950990	768.737980	520.619570	630.070560	816.474060	447.433870	544.144960	750.168640	453.595950	478.054840	733.989990	476.685550	406.290040	733.615840	568.986570	288.465330	765.207890	511.592860	184.648250	689.674010	195.439700	516.573430	532.975460	219.187900	393.109310	467.158840	131.311100	331.306670	518.248600	202.441800	164.066600	520.268070	23.187210	193.886840	539.775150	101.348360	125.782140	493.837830	-85.366950	126.472530	584.669860	628.415280	31.854340	617.122620	569.138060	29.044790	710.146300	482.851010	88.845860	699.299190	359.831600	36.700650	745.951480	545.240480	1158.840700	1037.665200	307.506740	1222.899800	1132.533400	664.989070	1264.609900	278.624730	633.869510	1172.803600	39.471720	
397	3.9600	682.579220	983.286250	660.423950	535.496090	1447.542200	840.099300	446.448490	1369.097700	682.196230	540.414250	1457.579800	522.822750	545.017760	1489.058300	707.978640	449.767880	953.768430	535.660830	463.904360	958.767880	808.203740	340.106690	817.357910	562.233400	353.714360	690.229490	484.518070	260.090850	680.060300	564.249450	210.317200	607.107060	543.958800	423.580720	739.971620	767.912110	520.173220	630.084170	816.019470	447.155550	544.149480	749.480040	453.410340	477.905000	733.404970	476.509030	406.290280	733.131410	568.846440	288.555910	765.078060	511.534030	184.626240	689.544070	196.904080	516.041930	533.424560	220.073680	392.254700	468.203830	131.944560	330.973360	519.831790	202.202760	162.847260	522.852720	23.053500	194.684160	541.554080	100.732040	125.148830	496.710570	-86.256680	128.992320	587.221500	628.446720	31.862870	617.138000	569.130980	29.037840	710.169370	482.838900	88.878110	699.247500	359.877530	36.748590	745.977230	545.133540	1158.582500	1037.246800	307.188900	1222.587300	1131.843100	665.675960	1264.642300	278.480680	634.642580	1172.606100	39.460420	
398	3.9700	682.939820	983.318240	660.629760	535.197020	1447.482200	839.958070	446.753420	1369.126000	681.591310	541.060360	1457.675300	522.823730	545.175780	1489.076800	707.930300	450.987920	953.524540	534.790160	463.282440	958.875180	807.482540	340.992430	817.162540	560.796080	355.553310	689.304380	484.270050	261.631440	679.426880	563.549440	212.510240	606.415710	543.667910	423.295100	739.992070	766.986820	519.816040	630.070860	815.625240	446.867580	544.172850	748.764400	451.481080	478.733800	732.888610	476.262570	406.206300	732.604000	568.696290	288.616000	764.907350	511.501250	184.628460	689.432620	198.431880	515.338680	533.868160	220.943920	391.198030	469.329070	132.693590	330.544980	521.284480	201.693820	161.293780	525.520810	22.936210	195.666050	543.266850	99.606860	124.231810	499.956760	-87.184300	132.012370	589.322080	628.456420	31.851410	617.151430	569.123960	29.021300	710.183780	482.836580	88.847440	699.246700	359.889280	36.699290	745.887700	545.048220	1158.328400	1036.883300	306.689880	1222.148600	1130.822900	666.327450	1264.697900	278.561310	635.397890	1172.505900	39.459010	
399	3.9800	683.274900	983.355590	660.792480	534.779850	1447.401400	839.792910	446.999210	1369.194500	681.003720	541.652950	1457.816900	522.850710	545.349060	1489.108300	707.873900	451.726230	953.386900	533.729490	463.261200	958.732730	806.282780	341.906650	816.825740	559.486330	357.513730	688.228640	484.142790	263.422640	678.678710	563.029240	214.851780	605.626950	543.568790	423.022770	740.018190	766.074100	519.433530	630.099550	815.228210	446.645170	544.282230	748.145450	452.401460	478.325810	732.377140	476.145050	406.304140	732.194640	568.531980	288.687960	764.707280	511.433840	184.692090	689.154660	200.091640	514.726810	534.385990	221.843800	390.242650	470.378780	133.422010	330.148930	522.790830	201.010380	159.684840	527.919070	22.735760	196.941680	544.735170	98.504450	123.872740	502.393890	-88.613040	135.409810	591.197630	628.475280	31.841380	617.140930	569.167540	29.043350	710.180300	482.844640	88.872090	699.158630	359.890590	36.776860	745.829710	544.906740	1158.199600	1036.555300	306.480040	1221.859400	1130.308300	666.946230	1264.778100	278.297940	636.167110	1172.457500	39.425880	
